<?xml version="1.0" ?><svg viewBox="0 0 64 64" xmlns="http://www.w3.org/2000/svg"><g id="Jalousie"><rect height="12" style="fill:#ed1c24" width="4" x="47" y="15"/><path d="M29,15V47H39V31a4,4,0,0,1,4-4h4V15Z" style="fill:#f1f2f2"/><rect height="32" style="fill:#f1f2f2" width="18" x="7" y="15"/><path d="M57,27H43a4,4,0,0,0-4,4v2H61V31A4,4,0,0,0,57,27Z" style="fill:#006df0"/><path d="M39,55v2a4,4,0,0,0,4,4H57a4,4,0,0,0,4-4V55Z" style="fill:#006df0"/><polygon points="39 33 39 47 39 51 39 55 61 55 61 33 39 33" style="fill:#f1f2f2"/><polygon points="29 47 25 47 7 47 3 47 3 51 39 51 39 47 29 47" style="fill:#5eac24"/><polygon points="25 15 29 15 47 15 51 15 51 11 3 11 3 15 7 15 25 15" style="fill:#57a4ff"/><rect height="32" style="fill:#ed1c24" width="4" x="3" y="15"/><rect height="4" style="fill:#2488ff" width="48" x="3" y="7"/><rect height="4" style="fill:#006df0" width="48" x="3" y="3"/><rect height="32" style="fill:#be1e2d" width="4" x="25" y="15"/><path d="M39,41V55H55C47.262,55,39,48.738,39,41Z" style="fill:#d1d3d4"/><path d="M57,26H52V3a1,1,0,0,0-1-1H3A1,1,0,0,0,2,3V51a1,1,0,0,0,1,1H38v5a5.006,5.006,0,0,0,5,5H57a5.006,5.006,0,0,0,5-5V31A5.006,5.006,0,0,0,57,26Zm3,5v1H40V31a3,3,0,0,1,3-3H57A3,3,0,0,1,60,31Zm0,23H40V34H60ZM8,46V16H24V46ZM4,14V12H50v2Zm46-4H4V8H50ZM4,16H6V46H4Zm22,0h2V46H26Zm4,0H46V26H43a5.006,5.006,0,0,0-5,5V46H30ZM48,26V16h2V26ZM4,4H50V6H4ZM4,50V48H38v2ZM57,60H43a3,3,0,0,1-3-3V56H60v1A3,3,0,0,1,57,60Z" style="fill:#231f20"/><path d="M49,29a1,1,0,0,0,0,2h2a1,1,0,0,0,0-2Z" style="fill:#231f20"/><path d="M52,57H48a1,1,0,0,0,0,2h4a1,1,0,0,0,0-2Z" style="fill:#231f20"/><path d="M20.95,28.536l-4.243-4.243a1,1,0,0,0-1.414,0L11.05,28.536a1,1,0,1,0,1.414,1.414L15,27.414V38a1,1,0,0,0,2,0V27.414l2.536,2.536a1,1,0,1,0,1.414-1.414Z" style="fill:#231f20"/><path d="M47.879,39.536,49,38.415V42a1,1,0,0,0,2,0V38.415l1.121,1.121a1,1,0,1,0,1.414-1.414l-2.827-2.828a1,1,0,0,0-1.416,0l-2.827,2.828a1,1,0,1,0,1.414,1.414Z" style="fill:#231f20"/><path d="M49.292,52.706a1,1,0,0,0,.323.216.989.989,0,0,0,.77,0,1,1,0,0,0,.323-.216l2.827-2.828a1,1,0,1,0-1.414-1.414L51,49.585V46a1,1,0,0,0-2,0v3.585l-1.121-1.121a1,1,0,1,0-1.414,1.414Z" style="fill:#231f20"/><path d="M40,20a1,1,0,0,0-1-1,7.008,7.008,0,0,0-7,7,1,1,0,0,0,2,0,5.006,5.006,0,0,1,5-5A1,1,0,0,0,40,20Z" style="fill:#231f20"/><path d="M38,26a1,1,0,0,1,1-1,1,1,0,0,0,0-2,3,3,0,0,0-3,3,1,1,0,0,0,2,0Z" style="fill:#231f20"/></g></svg>