<?xml version="1.0" ?><svg viewBox="0 0 64 64" xmlns="http://www.w3.org/2000/svg"><g id="Fingerscan"><rect height="50" rx="4" style="fill:#bddbff" width="50" x="7" y="7"/><path d="M53,3H11a8,8,0,0,0-8,8V53a8,8,0,0,0,8,8H53a8,8,0,0,0,8-8V11A8,8,0,0,0,53,3Zm4,38V53a4,4,0,0,1-4,4H11a4,4,0,0,1-4-4V11a4,4,0,0,1,4-4H53a4,4,0,0,1,4,4Z" style="fill:#006df0"/><path d="M32,19h0A16,16,0,0,1,48,35V57a0,0,0,0,1,0,0H16a0,0,0,0,1,0,0V35A16,16,0,0,1,32,19Z" style="fill:#c0ab91"/><path d="M7,29V53a4.012,4.012,0,0,0,4,4h5V49.775A27.965,27.965,0,0,1,7,29Z" style="fill:#57a4ff"/><path d="M16,57H35a27.869,27.869,0,0,1-19-7.225Z" style="fill:#b39a7c"/><path d="M53,2H11a9.011,9.011,0,0,0-9,9V53a9.011,9.011,0,0,0,9,9H53a9.011,9.011,0,0,0,9-9V11A9.011,9.011,0,0,0,53,2Zm7,51a7.008,7.008,0,0,1-7,7H11a7.008,7.008,0,0,1-7-7V11a7.008,7.008,0,0,1,7-7H53a7.008,7.008,0,0,1,7,7Z" style="fill:#231f20"/><path d="M53,6H11a5.006,5.006,0,0,0-5,5V53a5.006,5.006,0,0,0,5,5H53a5.006,5.006,0,0,0,5-5V11A5.006,5.006,0,0,0,53,6ZM11,8H53a3,3,0,0,1,3,3V40H49V35A17.019,17.019,0,0,0,32,18a16.82,16.82,0,0,0-10.581,3.693,1,1,0,0,0,1.247,1.565A14.831,14.831,0,0,1,32,20,15.017,15.017,0,0,1,47,35v5H45V35a12.887,12.887,0,0,0-1.146-5.337,1,1,0,0,0-1.823.823A10.893,10.893,0,0,1,43,35v5H41V35a9,9,0,0,0-12.132-8.438,1,1,0,0,0,.7,1.875A7,7,0,0,1,39,35v5H37V35a5,5,0,0,0-10,0v5H25V35a6.914,6.914,0,0,1,1.544-4.38,1,1,0,0,0-1.558-1.254A9.02,9.02,0,0,0,23,35v5H21V35a10.995,10.995,0,0,1,19.189-7.336,1,1,0,1,0,1.489-1.336A13,13,0,0,0,19,35v5H17V35a15.034,15.034,0,0,1,3.331-9.426,1,1,0,0,0-1.555-1.258A17.042,17.042,0,0,0,15,35v5H8V11A3,3,0,0,1,11,8ZM32,38a1,1,0,0,0-1,1v1H29V35a3,3,0,0,1,6,0v5H33V39A1,1,0,0,0,32,38ZM8,53V42h7V56H11A3,3,0,0,1,8,53Zm12-.934a1,1,0,0,0-1,1V56H17V42h2v7a1,1,0,0,0,2,0V42h2V56H21V53.066A1,1,0,0,0,20,52.066ZM25,42h2V56H25ZM37,56V49a1,1,0,0,0-2,0v7H29V42h2v6a1,1,0,0,0,2,0V42h2v3a1,1,0,0,0,2,0V42h2V56Zm4,0V42h2V56Zm4,0V42h2V56Zm8,0H49V42h7V53A3,3,0,0,1,53,56Z" style="fill:#231f20"/><path d="M33,35a1,1,0,0,0-2,0v1a1,1,0,0,0,2,0Z" style="fill:#231f20"/><path d="M32,51a1,1,0,0,0-1,1v1a1,1,0,0,0,2,0V52A1,1,0,0,0,32,51Z" style="fill:#231f20"/></g></svg>